<svg xmlns="http://www.w3.org/2000/svg" width="1000" height="470" viewBox="0 0 1000 470">
<defs>
  <linearGradient id="bg" x1="0" y1="0" x2="1" y2="1"><stop offset="0" stop-color="#05070a"/><stop offset="1" stop-color="#0b1512"/></linearGradient>
  <filter id="glow"><feGaussianBlur stdDeviation="3" result="b"/><feMerge><feMergeNode in="b"/><feMergeNode in="SourceGraphic"/></feMerge></filter>
  <pattern id="grid" width="32" height="32" patternUnits="userSpaceOnUse"><path d="M32 0H0V32" fill="none" stroke="#12352b" stroke-width="1" opacity=".35"/></pattern>
  <clipPath id="screen"><rect x="24" y="74" width="952" height="365" rx="12"/></clipPath>
</defs>
<rect width="1000" height="470" rx="20" fill="#020304"/>
<rect x="8" y="8" width="984" height="454" rx="18" fill="url(#bg)" stroke="#1e3c32" stroke-width="2"/>
<rect x="24" y="24" width="952" height="40" rx="10" fill="#11171a" stroke="#243b34"/>
<circle cx="47" cy="44" r="6" fill="#ff5f56"/><circle cx="67" cy="44" r="6" fill="#ffbd2e"/><circle cx="87" cy="44" r="6" fill="#27c93f"/>
<text x="500" y="50" text-anchor="middle" fill="#b9c9c3" font-family="monospace" font-size="14">DHEERAJ@SECURITY-LAB — SYSTEM STATUS</text>
<rect x="24" y="74" width="952" height="365" rx="12" fill="#030806" stroke="#173b2e"/>
<g clip-path="url(#screen)"><rect x="24" y="74" width="952" height="365" fill="url(#grid)"/>
<rect x="24" y="74" width="952" height="365" fill="none" stroke="#00ff9c" opacity=".12"/>
<g font-family="monospace" font-size="16" fill="#9ce9c5">
<text x="52" y="108" fill="#00ff9c" filter="url(#glow)">dheeraj@security-lab:~$ ./system-status --live</text>
<text x="52" y="140" fill="#657d74">[SYSTEM]</text><text x="160" y="140">ONLINE</text><circle cx="147" cy="135" r="4" fill="#00ff9c" filter="url(#glow)"/>
<text x="52" y="170" fill="#657d74">[MODE]</text><text x="160" y="170" fill="#00ff9c">OFFENSIVE SECURITY</text>
<text x="52" y="200" fill="#657d74">[SPECIALITY]</text><text x="160" y="200">WEB / NETWORK / ACTIVE DIRECTORY</text>
<text x="52" y="230" fill="#657d74">[AUTOMATION]</text><text x="160" y="230">PYTHON / BASH / POWERSHELL</text>
<text x="52" y="260" fill="#657d74">[LABS]</text><text x="160" y="260">HACK THE BOX / TRYHACKME</text>
<text x="52" y="290" fill="#657d74">[METHODOLOGY]</text><text x="160" y="290">RECON → ENUM → EXPLOIT → ESCALATE → REPORT</text>
<line x1="52" y1="314" x2="948" y2="314" stroke="#173b2e"/>
<text x="52" y="344" fill="#00ff9c">[+] TELEMETRY</text><text x="190" y="344" fill="#657d74">ATTACK SURFACE MAPPED</text>
<text x="52" y="372" fill="#00ff9c">[✓]</text><text x="90" y="372">WEB SECURITY</text><text x="270" y="372" fill="#00ff9c">[✓]</text><text x="308" y="372">NETWORK SECURITY</text><text x="535" y="372" fill="#00ff9c">[✓]</text><text x="573" y="372">ACTIVE DIRECTORY</text>
<text x="52" y="400" fill="#00ff9c">[✓]</text><text x="90" y="400">SECURITY AUTOMATION</text><text x="310" y="400" fill="#00ff9c">[✓]</text><text x="348" y="400">SOC OPERATIONS</text><text x="535" y="400" fill="#00ff9c">[✓]</text><text x="573" y="400">SECURITY RESEARCH</text>
<text x="52" y="428" fill="#00ff9c">dheeraj@security-lab:~$</text><text x="260" y="428" fill="#d7fff0">_</text>
</g>
<rect x="24" y="74" width="952" height="3" fill="#00ff9c" opacity=".08"><animate attributeName="y" values="74;436;74" dur="5s" repeatCount="indefinite"/></rect>
<rect x="30" y="80" width="940" height="350" fill="#00ff9c" opacity=".025"><animate attributeName="opacity" values=".02;.07;.02" dur="2.8s" repeatCount="indefinite"/></rect>
</g>
</svg>
